# xmcd CD database file
#
# Track frame offsets:
#	151
#	16651
#	26635
#	42213
#	60053
#	73219
#	88218
#	107934
#	125493
#	144471
#	160214
#	162070
#	175112
#
# Disc length: 2687 seconds
#
# Revision: 0
# Processed by: cddbd v1.5.2PL0 Copyright (c) Steve Scherf et al.
# Submitted via: CDex 1.79
#
DISCID=a40a7d0d
DTITLE=Laura Boosinger - Down The Road
DYEAR=1998
DGENRE=Country
TTITLE0=Back To Old Smoky Mountains
TTITLE1=Italy
TTITLE2=Dixie Darling
TTITLE3=Two Soldiers
TTITLE4=Josie Girl
TTITLE5=Letter From Down The Road
TTITLE6=Tom Dula
TTITLE7=Fly Around My Pretty Little Miss
TTITLE8=Little Margaret
TTITLE9=Little Moses
TTITLE10=Consolation
TTITLE11=Old Fashion Locket
TTITLE12=(Bonus Cut)
EXTD=YEAR: 1998
EXTT0=
EXTT1=
EXTT2=
EXTT3=
EXTT4=
EXTT5=
EXTT6=
EXTT7=
EXTT8=
EXTT9=
EXTT10=
EXTT11=
EXTT12=
PLAYORDER=
